<?xml version="1.0" encoding="utf-8"?>
<!-- Generator: Adobe Illustrator 25.0.0, SVG Export Plug-In . SVG Version: 6.00 Build 0)  -->
<svg version="1.1" xmlns="http://www.w3.org/2000/svg" xmlns:xlink="http://www.w3.org/1999/xlink" x="0px" y="0px"
	 viewBox="0 0 750 500" style="enable-background:new 0 0 750 500;" xml:space="preserve">
<style type="text/css">
	.st0{fill:#EEEEEE;}
	.st1{fill:none;stroke:#DED8D5;stroke-width:1.9678;stroke-miterlimit:10;}
	.st2{fill:#FFB1A5;}
	.st3{fill:#EAD254;}
	.st4{fill:#00857B;}
	.st5{fill:#EDEDED;}
	.st6{fill:#C98BD2;}
	.st7{fill:none;stroke:#FFFFFF;stroke-width:1.6466;stroke-linecap:round;stroke-linejoin:round;stroke-miterlimit:10;}
	.st8{fill:#FFFFFF;}
	.st9{fill:#56DFED;}
	.st10{fill:none;stroke:#FFFFFF;stroke-width:1.1803;stroke-miterlimit:10;}
	.st11{clip-path:url(#SVGID_2_);}
	.st12{fill:#8E716C;}
	.st13{fill:none;stroke:#282828;stroke-width:1.2333;stroke-linecap:round;stroke-linejoin:round;stroke-miterlimit:10;}
	.st14{fill:#F3978E;}
	.st15{fill:#372F5F;}
	.st16{fill:#261B43;}
	.st17{fill:#E6E6E6;}
	.st18{fill:#282828;}
	.st19{fill:none;stroke:#282828;stroke-width:0.9928;stroke-linecap:round;stroke-linejoin:round;stroke-miterlimit:10;}
	.st20{fill:none;stroke:#282828;stroke-width:1.2316;stroke-linecap:round;stroke-linejoin:round;stroke-miterlimit:10;}
	.st21{fill:none;stroke:#C98BD2;stroke-width:1.3423;stroke-miterlimit:10;}
	.st22{fill:none;stroke:#282828;stroke-width:1.2298;stroke-linecap:round;stroke-linejoin:round;stroke-miterlimit:10;}
	.st23{fill:#005683;}
	.st24{fill:none;stroke:#282828;stroke-width:1.3968;stroke-linecap:round;stroke-linejoin:round;stroke-miterlimit:10;}
	.st25{fill:none;stroke:#282828;stroke-width:1.5317;stroke-linecap:round;stroke-linejoin:round;stroke-miterlimit:10;}
	.st26{fill:none;stroke:#FFFFFF;stroke-width:1.9514;stroke-miterlimit:10;}
</style>
<g id="BACKGROUND">
	<rect x="0.22" class="st0" width="750" height="500"/>
</g>
<g id="OBJECTS">
	<g>
		<g>
			<g>
				<g>
					<line class="st1" x1="125.98" y1="158.68" x2="625.35" y2="158.68"/>
					<path class="st1" d="M618.82,434.91H132.5c-3.6,0-6.52-2.92-6.52-6.52V132.46c0-3.6,2.92-6.52,6.52-6.52h486.33
						c3.6,0,6.52,2.92,6.52,6.52v295.92C625.35,431.99,622.43,434.91,618.82,434.91z"/>
					<g>
						<path class="st2" d="M158.89,142.64c0,2.52-2.04,4.57-4.57,4.57c-2.52,0-4.57-2.05-4.57-4.57c0-2.52,2.04-4.57,4.57-4.57
							C156.84,138.08,158.89,140.12,158.89,142.64z"/>
						<path class="st3" d="M176.64,142.64c0,2.52-2.05,4.57-4.57,4.57c-2.52,0-4.57-2.05-4.57-4.57c0-2.52,2.05-4.57,4.57-4.57
							C174.59,138.08,176.64,140.12,176.64,142.64z"/>
						<path class="st4" d="M194.39,142.64c0,2.52-2.05,4.57-4.57,4.57s-4.57-2.05-4.57-4.57c0-2.52,2.04-4.57,4.57-4.57
							S194.39,140.12,194.39,142.64z"/>
					</g>
				</g>
			</g>
			<g>
				<g>
					<g>
						<g>
							<path class="st5" d="M690.22,268.94H572.86c-3.31,0-5.99-2.68-5.99-5.99V154.4c0-3.31,2.68-5.99,5.99-5.99h117.36
								c3.31,0,5.99,2.68,5.99,5.99v108.54C696.21,266.25,693.53,268.94,690.22,268.94z"/>
							<path class="st1" d="M690.22,268.94H572.86c-3.31,0-5.99-2.68-5.99-5.99V154.4c0-3.31,2.68-5.99,5.99-5.99h117.36
								c3.31,0,5.99,2.68,5.99,5.99v108.54C696.21,266.25,693.53,268.94,690.22,268.94z"/>
						</g>
					</g>
				</g>
				<g>
					<g>
						<g>
							<g>
								<path class="st6" d="M601.23,237.58h61c3.33,0,6.02-2.7,6.02-6.02v-49.99c0-3.33-2.7-6.02-6.02-6.02h-61
									c-3.33,0-6.02,2.7-6.02,6.02v49.99C595.21,234.89,597.9,237.58,601.23,237.58z"/>
							</g>
						</g>
					</g>
					<g>
						<polygon class="st7" points="648.39,216.88 619.84,216.88 614.68,216.88 614.68,194.28 648.39,194.28 648.39,199.93 						"/>
						<polyline class="st7" points="614.68,194.28 631.54,207.56 648.39,194.28 						"/>
					</g>
				</g>
			</g>
			<g>
				<g>
					<g>
						<g>
							<path class="st5" d="M173.75,359.82H61.82c-3.16,0-5.71-2.56-5.71-5.71v-97.58c0-3.16,2.56-5.71,5.71-5.71h111.93
								c3.16,0,5.71,2.56,5.71,5.71v97.58C179.46,357.27,176.9,359.82,173.75,359.82z"/>
							<path class="st1" d="M173.75,359.82H61.82c-3.16,0-5.71-2.56-5.71-5.71v-97.58c0-3.16,2.56-5.71,5.71-5.71h111.93
								c3.16,0,5.71,2.56,5.71,5.71v97.58C179.46,357.27,176.9,359.82,173.75,359.82z"/>
						</g>
					</g>
				</g>
				<g>
					<path class="st2" d="M146.52,338.82H88.47c-3.67,0-6.64-2.97-6.64-6.64v-56.06c0-3.67,2.97-6.64,6.64-6.64h58.05
						c3.67,0,6.64,2.97,6.64,6.64v56.06C153.16,335.85,150.19,338.82,146.52,338.82z"/>
					<g>
						<path class="st8" d="M103.67,290.54c-7.83,7.83-7.83,20.69,0,28.52c7.83,7.83,20.69,7.83,28.52,0
							c7.83-7.83,7.83-20.69,0-28.52C124.36,282.71,111.5,282.71,103.67,290.54z M132.14,293.45h-6.43
							c-0.64-2.02-1.47-4.04-2.5-6.06C126.78,288.47,129.88,290.61,132.14,293.45z M110.53,303.62c0-2.61,0.31-5.21,0.96-7.82h12.9
							c0.64,2.61,0.95,5.21,0.96,7.82H110.53z M125.26,305.98c-0.18,2.61-0.65,5.21-1.39,7.82h-11.88
							c-0.74-2.61-1.21-5.21-1.39-7.82H125.26z M117.93,286.61c0.97,0,1.92,0.08,2.85,0.22c1.24,2.21,2.2,4.41,2.92,6.62h-11.55
							c0.72-2.21,1.69-4.41,2.92-6.62C116.01,286.68,116.96,286.61,117.93,286.61z M112.64,287.39c-1.02,2.02-1.85,4.04-2.5,6.06
							h-6.43C105.99,290.61,109.08,288.47,112.64,287.39z M102.12,295.8h7.36c-0.65,2.61-0.98,5.21-1.03,7.82h-8.67
							C99.96,300.79,100.79,298.14,102.12,295.8z M102.12,313.8c-1.33-2.33-2.16-4.99-2.34-7.82h8.7c0.13,2.61,0.54,5.21,1.23,7.82
							H102.12z M103.72,316.16h6.69c0.67,2.04,1.5,4.09,2.49,6.13C109.23,321.23,106.04,319.06,103.72,316.16z M117.93,322.99
							c-0.81,0-1.6-0.05-2.38-0.15c-1.11-2.23-2.06-4.45-2.82-6.68h10.41c-0.76,2.23-1.71,4.46-2.82,6.68
							C119.53,322.94,118.74,322.99,117.93,322.99z M122.97,322.29c0.99-2.04,1.82-4.09,2.49-6.13h6.69
							C129.82,319.06,126.64,321.23,122.97,322.29z M133.75,313.8h-7.59c0.69-2.61,1.1-5.21,1.23-7.82h8.7
							C135.9,308.81,135.08,311.47,133.75,313.8z M136.09,303.62h-8.67c-0.05-2.61-0.39-5.21-1.03-7.82h7.36
							C135.08,298.14,135.9,300.79,136.09,303.62z"/>
					</g>
				</g>
			</g>
		</g>
		<g>
			<path class="st6" d="M167.08,97.43H65.68c-2.09,0-3.79-1.7-3.79-3.79l0,0c0-2.09,1.7-3.79,3.79-3.79h101.4
				c2.09,0,3.79,1.7,3.79,3.79l0,0C170.87,95.73,169.17,97.43,167.08,97.43z"/>
			<path class="st9" d="M694.35,345.12h-49.22c-2.09,0-3.79-1.7-3.79-3.79l0,0c0-2.09,1.7-3.79,3.79-3.79h49.22
				c2.09,0,3.79,1.7,3.79,3.79l0,0C698.14,343.42,696.44,345.12,694.35,345.12z"/>
			<path class="st6" d="M659.88,388.99h-6.01c-1.58,0-2.86-1.28-2.86-2.86v-5.65c0-1.58,1.28-2.86,2.86-2.86h6.01
				c1.58,0,2.86,1.28,2.86,2.86v5.65C662.74,387.71,661.46,388.99,659.88,388.99z"/>
			<path class="st2" d="M89.83,415.27h-6.01c-1.58,0-2.86-1.28-2.86-2.86v-5.65c0-1.58,1.28-2.86,2.86-2.86h6.01
				c1.58,0,2.86,1.28,2.86,2.86v5.65C92.69,413.99,91.41,415.27,89.83,415.27z"/>
			<g>
				<g>
					<path class="st2" d="M550.11,93.51H450.02c-1.66,0-3.01-1.35-3.01-3.01V66.07c0-1.66,1.35-3.01,3.01-3.01h100.08
						c1.66,0,3.01,1.35,3.01,3.01V90.5C553.12,92.17,551.77,93.51,550.11,93.51z"/>
					<g>
						<line class="st10" x1="461.47" y1="73.91" x2="532.64" y2="73.91"/>
						<line class="st10" x1="461.47" y1="81.21" x2="490.46" y2="81.21"/>
					</g>
				</g>
				<polygon class="st2" points="458.57,90.07 458.57,101.94 473.5,90.07 				"/>
			</g>
			<g>
				<g>
					<g>
						<g>
							<g>
								<g>
									<path class="st9" d="M304.22,95.33h-48.45c-4.71,0-8.52-3.81-8.52-8.52V41.76c0-3.57,2.89-6.46,6.46-6.46h50.51
										c3.57,0,6.46,2.89,6.46,6.46v47.1C310.67,92.43,307.78,95.33,304.22,95.33z"/>
								</g>
							</g>
						</g>
					</g>
				</g>
				<g>
					<path class="st8" d="M293.76,69.75l-3.61-3.61c-0.64-0.71-1.48-1.1-2.32-1.1c-0.84,0-1.68,0.39-2.32,1.03l-2.06,2.06
						c-0.13-0.06-0.26-0.13-0.39-0.19c-0.26-0.13-0.45-0.19-0.64-0.32c-1.93-1.23-3.68-2.84-5.35-4.9
						c-0.77-0.97-1.35-1.87-1.68-2.64c0.52-0.45,0.97-0.97,1.42-1.42c0.19-0.19,0.39-0.39,0.58-0.58c0.71-0.71,1.1-1.55,1.1-2.39
						c0-0.84-0.39-1.68-1.1-2.39l-1.81-1.81c-0.19-0.19-0.39-0.39-0.58-0.64c-0.39-0.39-0.84-0.84-1.23-1.23
						c-0.64-0.64-1.48-1.03-2.32-1.03c-0.84,0-1.61,0.32-2.32,1.03l-2.26,2.26c-0.84,0.84-1.35,1.93-1.48,3.16
						c-0.13,1.93,0.39,3.74,0.84,4.9c1.03,2.97,2.64,5.61,5.03,8.45c2.9,3.42,6.32,6.13,10.32,8.06c1.48,0.71,3.55,1.55,5.8,1.74
						c0.13,0,0.26,0,0.45,0c1.55,0,2.84-0.58,3.87-1.68c0,0,0,0,0.06-0.06c0.32-0.39,0.71-0.77,1.16-1.16
						c0.26-0.26,0.58-0.58,0.84-0.84C295.12,73.04,295.12,71.11,293.76,69.75z M292.28,73.11c-0.26,0.26-0.52,0.52-0.77,0.77
						c-0.45,0.39-0.84,0.84-1.29,1.29c-0.64,0.65-1.35,0.97-2.32,0.97c-0.13,0-0.19,0-0.32,0c-1.93-0.13-3.74-0.9-5.03-1.55
						c-3.68-1.81-6.9-4.32-9.61-7.55c-2.19-2.64-3.68-5.16-4.71-7.8c-0.65-1.55-0.9-2.77-0.77-4c0.06-0.71,0.32-1.35,0.9-1.87
						l2.19-2.19c0.19-0.19,0.52-0.45,0.9-0.45c0.39,0,0.64,0.19,0.9,0.45c0.39,0.39,0.77,0.77,1.16,1.16
						c0.19,0.19,0.39,0.45,0.65,0.65l1.81,1.81c0.19,0.19,0.45,0.58,0.45,0.9c0,0.39-0.26,0.71-0.45,0.9
						c-0.19,0.19-0.39,0.39-0.58,0.58c-0.58,0.58-1.1,1.1-1.61,1.61c0,0,0,0-0.06,0.06c-0.64,0.64-0.52,1.23-0.39,1.61v0.06
						c0.45,1.16,1.16,2.19,2.13,3.48c1.81,2.26,3.74,4,5.87,5.35c0.26,0.19,0.58,0.32,0.84,0.45c0.26,0.13,0.45,0.19,0.64,0.32
						l0.06,0.06c0.64,0.32,1.29,0.19,1.81-0.32l2.26-2.26c0.19-0.19,0.52-0.45,0.9-0.45c0.32,0,0.64,0.26,0.84,0.45l3.61,3.61
						C292.86,71.82,292.86,72.46,292.28,73.11z"/>
				</g>
			</g>
		</g>
	</g>
	<g>
		<defs>
			<rect id="SVGID_1_" x="171.98" y="101.42" width="459.27" height="332.68"/>
		</defs>
		<clipPath id="SVGID_2_">
			<use xlink:href="#SVGID_1_"  style="overflow:visible;"/>
		</clipPath>
		<g class="st11">
			<g>
				<g>
					<path class="st12" d="M514.96,322.58l-36.5-4.86l0.29,3.62l-31.21,4.16c0,0-20.12,50.47-2.39,161.46h25.39l9.14-112.55h3.24
						l8.85,112.55h25.39C534.88,375.97,514.96,322.58,514.96,322.58z"/>
					<line class="st13" x1="468.07" y1="374.42" x2="494.55" y2="374.42"/>
				</g>
				<g>
					<g>
						<g>
							<g>
								<path class="st2" d="M536.28,269.34c-3.12-4.98-20.66-4.81-21.59-4.92c-4.74-0.56,3.04,37.18,12.91,70.17
									c1.89,6.32,8.85,9.62,14.93,7.04c0.07-0.03,0.13-0.06,0.2-0.08c4.81-2.04,7.54-7.14,6.58-12.27
									C544.6,304.39,539.89,275.1,536.28,269.34z"/>
							</g>
							<polygon class="st14" points="540.46,282.99 518.06,291.68 515.96,281.05 539.16,275.27 							"/>
							<path class="st14" d="M544.69,304.25c0,0-10.61,14.25-10.1,13.59c0.51-0.66,8.32-23.03,8.32-23.03L544.69,304.25z"/>
						</g>
						<g>
							<path class="st2" d="M559.86,285.09l-30.41,39.4c-3.99,5.17-2.72,12.65,2.76,16.21h0c5.47,3.55,12.81,1.68,15.92-4.05
								l25.31-46.7L559.86,285.09z"/>
							<g>
								<path class="st2" d="M567.73,295.21c-6.59-2.13-10.21-9.2-8.08-15.79c2.13-6.59,9.2-10.21,15.79-8.08
									c6.59,2.13,10.21,9.2,8.08,15.79C581.4,293.72,574.32,297.34,567.73,295.21z"/>
								<path class="st2" d="M580.73,275.73c0,0,3.43-3.56-2.66-6.06c-6.09-2.5-13.62-1.93-18.43,9.75L580.73,275.73z"/>
							</g>
							<g>
								<path class="st15" d="M587.04,250.83l12.73,5.52c0.71,0.31,0.97,1.15,0.58,1.88l-16.75,31.29
									c-0.39,0.73-1.28,1.07-1.99,0.76l-12.73-5.52c-0.71-0.31-0.97-1.15-0.58-1.88l16.75-31.29
									C585.44,250.87,586.34,250.52,587.04,250.83z"/>
								<path class="st16" d="M585.83,250.28l12.73,5.52c0.71,0.31,0.97,1.15,0.58,1.88l-16.75,31.29
									c-0.39,0.73-1.28,1.07-1.99,0.76l-12.73-5.52c-0.71-0.31-0.97-1.15-0.58-1.88l16.75-31.29
									C584.23,250.31,585.12,249.97,585.83,250.28z"/>
								<polygon class="st17" points="584.39,253.46 595.58,258.31 581.93,283.81 570.74,278.96 								"/>
								<polygon class="st8" points="595.58,258.31 570.74,278.96 584.39,253.46 								"/>
							</g>
							<path class="st2" d="M574.42,268.63c0,0,2.84,0.55,5.39,2c1.13,0.64,1.7,1.94,1.39,3.2l0,0c-0.28,1.15-1.25,2-2.42,2.15
								l-6.62,0.83c0,0-3.45,5.95-7.97,6.62l4.14-10.45L574.42,268.63z"/>
						</g>
					</g>
					<g>
						<g>
							<path class="st9" d="M489.88,219.72c-0.73,0,46.95,6.6,54.81,60.95l-24.74,3.79l-4.99,41.04h-69.02l-13.7-75.82
								c0,0,15.29-21.91,43.68-29.96H489.88z"/>
							<line class="st13" x1="519.95" y1="284.47" x2="522.1" y2="260.73"/>
						</g>
					</g>
				</g>
				<g>
					<path class="st2" d="M494.41,220.5v-18.88h-22.13v19.1c-1.13,0.34-3.02,1.02-5.94,2.41l17.26,10.28l17.64-10.28
						C501.24,223.13,498.44,221.5,494.41,220.5z"/>
					<path class="st18" d="M472.08,203.92c0,0,3.97,10.55,14.58,9.64c9.75-0.84,8.2-15.46,8.2-15.46L472.08,203.92z"/>
					<g>
						<path class="st14" d="M462.43,189.89c-3.47,3.15-11.22-8.79-7.87-12.14c3.35-3.35,5.91,1.91,5.91,1.91l1.5,3.56l1.13,4.82
							l0.27,1.26L462.43,189.89z"/>
						<g>
							<g>
								<path class="st19" d="M456.17,181.98c0,0,2.63-1.18,4.96,2.62"/>
							</g>
						</g>
					</g>
					<g>
						<path class="st14" d="M503.44,189.53c3.19,3.43,11.93-7.81,8.87-11.43c-3.06-3.62-6.05,1.4-6.05,1.4l-1.79,3.42l-1.53,4.71
							l-0.37,1.24L503.44,189.53z"/>
						<g>
							<g>
								<path class="st19" d="M510.34,182.18c0,0-2.52-1.4-5.16,2.2"/>
							</g>
						</g>
					</g>
					<g>
						<path class="st18" d="M456.34,166.37c0,15.79,12.04,23.28,26.9,23.28s26.9-7.49,26.9-23.28c0-15.79-12.04-26.54-26.9-26.54
							S456.34,150.58,456.34,166.37z"/>
					</g>
					<path class="st2" d="M460,167.47c0,9.7,1.37,18.06,2.74,24c1.34,5.81,5.11,9.88,10.43,13.15l0.97,0.6
						c5.63,3.46,12.91,3.54,18.63,0.21l0,0c5.77-3.36,9.81-7.8,11.05-14.04c2.26-11.35,2.51-23.91,2.51-23.91s2.15-24.48-22.83-24
						C458.51,143.95,460,167.47,460,167.47z"/>
					<g>
						<path class="st20" d="M481.65,181.44v3.39c0,0.2,0.04,0.39,0.11,0.57c0.28,0.69,1.08,1.02,1.8,0.83l1.55-0.41"/>
						<path class="st18" d="M477.68,168.31l-12.42,2.91c0,0,0.56-3.16,5.64-4.31C475.98,165.76,477.68,168.31,477.68,168.31z"/>
						<path class="st18" d="M488.7,168.31l11.99,2.91c0,0-0.54-3.16-5.45-4.31C490.33,165.76,488.7,168.31,488.7,168.31z"/>
						<ellipse class="st18" cx="472.96" cy="177.43" rx="2.09" ry="2.09"/>
						<path class="st18" d="M494.9,177.43c0,1.15-0.94,2.09-2.09,2.09c-1.16,0-2.09-0.94-2.09-2.09s0.94-2.09,2.09-2.09
							C493.97,175.34,494.9,176.27,494.9,177.43z"/>
						<path class="st8" d="M475.05,190.17h16.15C491.2,190.17,484.04,198.88,475.05,190.17z"/>
						<g>
							
								<ellipse transform="matrix(0.7071 -0.7071 0.7071 0.7071 12.2341 386.0138)" class="st21" cx="472.08" cy="178.24" rx="8.9" ry="8.9"/>
							
								<ellipse transform="matrix(0.7071 -0.7071 0.7071 0.7071 18.6413 401.4823)" class="st21" cx="493.95" cy="178.24" rx="8.9" ry="8.9"/>
							<path class="st21" d="M480.98,178.24c0,0,2.11-1.97,4.07,0"/>
							<line class="st21" x1="463.17" y1="178.24" x2="460.37" y2="178.17"/>
							<line class="st21" x1="502.86" y1="178.24" x2="505.68" y2="178.17"/>
						</g>
					</g>
					<path class="st18" d="M506.01,175.59c0,0-9.99-13.5-7.69-27.19c0,0,7.41,3.73,9.35,13.36
						C509.6,171.39,506.01,175.59,506.01,175.59z"/>
					<path class="st18" d="M459.98,176.5c0,0,11.6-15.34,9.3-29.02c0,0-8.05,4.65-9.98,14.28
						C457.37,171.39,459.98,176.5,459.98,176.5z"/>
					<path class="st18" d="M505.17,153.79c0,0-12.83,14.04-47.92,11.64c0,0,5.37-20.61,22.38-22.8
						C479.63,142.63,499.27,140.28,505.17,153.79z"/>
					
						<ellipse transform="matrix(0.1594 -0.9872 0.9872 0.1594 288.2938 613.3089)" class="st18" cx="504.27" cy="137.37" rx="16.76" ry="16.76"/>
				</g>
			</g>
			<g>
				<path class="st18" d="M299.72,322.54l-31.21-4.16l0.29-3.62l-36.5,4.86c0,0-19.92,53.39-2.19,164.38h25.39l8.85-112.55h3.24
					l9.14,112.55h25.39C319.84,373.01,299.72,322.54,299.72,322.54z"/>
				<g>
					<path class="st18" d="M297.24,170.7c-4.22-4.97-7.61-10.77-10.48-18.9c-3.09-8.73-13.19-5.18-13.19-5.18
						s-8.42-10.83-21.09-7.06c-12.67,3.77-17.07,12.79-17.33,23.51c-0.26,10.72-8.69,12.39-15.18,24.79
						c-11.46,21.89,7.83,40.33,42.96,35.21l0.05-0.34c3.46,1.05,7.7,1.51,12.87,1.2C318.04,221.43,313.97,190.39,297.24,170.7z"/>
					<g>
						<path class="st14" d="M283.42,186.93c3.47,3.15,11.22-8.79,7.87-12.14s-5.91,1.91-5.91,1.91l-1.5,3.56l-1.13,4.82l-0.27,1.26
							L283.42,186.93z"/>
						<g>
							<g>
								<path class="st19" d="M289.67,179.02c0,0-2.63-1.18-4.96,2.62"/>
							</g>
						</g>
					</g>
					<g>
						<path class="st14" d="M242.41,186.57c-3.19,3.43-11.93-7.81-8.87-11.43c3.06-3.62,6.05,1.4,6.05,1.4l1.79,3.42l1.53,4.71
							l0.37,1.24L242.41,186.57z"/>
						<g>
							<g>
								<path class="st19" d="M235.51,179.22c0,0,2.52-1.4,5.16,2.2"/>
							</g>
						</g>
					</g>
					<g>
						<path class="st18" d="M289.5,163.42c0,15.79-12.04,23.28-26.9,23.28c-14.85,0-26.9-7.49-26.9-23.28s12.04-26.54,26.9-26.54
							C277.46,136.88,289.5,147.62,289.5,163.42z"/>
					</g>
					<rect x="251.44" y="198.66" class="st2" width="22.13" height="28.65"/>
					<path class="st18" d="M248.21,196.87c0,0,6.16,12.29,13.74,14.21c2.02,0.51,4.19,0.34,6.14-0.35c2.85-1.01,6.47-5.26,7.08-9.97
						l0.29-2.69C275.45,198.07,261.97,205.41,248.21,196.87z"/>
					<path class="st2" d="M285.85,164.51c0,9.7-1.37,18.06-2.74,24c-1.34,5.81-5.11,9.88-10.43,13.15l-0.97,0.6
						c-5.63,3.46-12.91,3.54-18.63,0.21v0c-5.77-3.36-9.81-7.8-11.05-14.04c-2.26-11.35-2.51-23.91-2.51-23.91s-2.15-24.48,22.83-24
						S285.85,164.51,285.85,164.51z"/>
					<g>
						<path class="st22" d="M260.94,179.81v2.01c0,0.2,0.04,0.39,0.11,0.57c0.28,0.69,1.08,1.02,1.8,0.83l1.55-0.41"/>
						<path class="st18" d="M266.14,166.54l13.29,3.15c0,0-0.6-3.42-6.04-4.66C267.96,163.79,266.14,166.54,266.14,166.54z"/>
						<path class="st18" d="M259.17,166.54l-13.46,3.15c0,0,0.61-3.42,6.12-4.66C257.33,163.79,259.17,166.54,259.17,166.54z"/>
						<path class="st18" d="M254.34,174.79c0,1.15-0.94,2.08-2.09,2.08c-1.16,0-2.09-0.93-2.09-2.08c0-1.15,0.94-2.08,2.09-2.08
							C253.4,172.71,254.34,173.64,254.34,174.79z"/>
						<path class="st18" d="M274.19,174.79c0,1.15-0.94,2.08-2.09,2.08c-1.16,0-2.09-0.93-2.09-2.08c0-1.15,0.94-2.08,2.09-2.08
							C273.26,172.71,274.19,173.64,274.19,174.79z"/>
						<path class="st8" d="M252.96,186.7h18.38c0,0-1.3,5.05-9.63,5.05C255.36,191.75,252.96,186.7,252.96,186.7z"/>
					</g>
					<path class="st18" d="M239.84,172.63c0,0,9.99-13.5,7.69-27.19c0,0-7.41,3.73-9.35,13.36
						C236.25,168.44,239.84,172.63,239.84,172.63z"/>
					<path class="st18" d="M285.86,172.18c0,0-11.6-13.97-9.3-27.65c0,0,8.05,4.65,9.98,14.28S285.86,172.18,285.86,172.18z"/>
					<path class="st18" d="M240.68,150.83c0,0,11.46,15.41,46.56,13c0,0-4.01-21.97-21.02-24.16
						C266.22,139.67,246.58,137.32,240.68,150.83z"/>
				</g>
				<g>
					<g>
						<g>
							<path class="st2" d="M208.69,390.31c-0.51,0.8,29.21-129.31,20.39-127.34c-0.81,0.18-16.26,1.61-18.55,6.28
								c-6.66,13.54-11.43,120.07-11.43,120.07L208.69,390.31z"/>
							<path class="st2" d="M199.09,389.33c0,0-4.79,22.22,13.32,24.65c1.19,0.16,2.35-0.54,2.74-1.68l0.05-0.15
								c0.43-1.26-0.2-2.6-1.41-3.14c-2.95-1.32-7.53-4.66-5.26-12.23c0,0,2.62-0.32,4.06,4.56c0.37,1.26,1.78,1.89,2.95,1.3l0,0
								c0.8-0.4,1.25-1.26,1.14-2.15c-0.43-3.42-2.15-11.65-8.75-13.86L199.09,389.33z"/>
						</g>
						<path class="st14" d="M205.18,300.52c0,0,17.12,24.11,17.21,23.65c0.09-0.47,5.99-33.86,5.99-33.86l-20.78-9L205.18,300.52z"
							/>
					</g>
					<g>
						<path class="st4" d="M252.76,222.59c0.73,0-42.32,0.77-50.19,55.12l24.74,3.79l4.99,41.04h69.02l13.7-75.82
							c0,0-9.74-16.43-38.13-24.47L252.76,222.59z"/>
						<path class="st2" d="M231.72,229.16c0,0,6.08,8.08,31.01,8.08c24.7,0,31.01-8.5,31.01-8.5s-14.56-8.13-31.45-10.77
							C262.29,217.98,247.2,220.66,231.72,229.16z"/>
					</g>
				</g>
			</g>
			<g>
				<g>
					<g>
						<polygon class="st23" points="316.41,401.37 316.47,509.77 370.1,509.77 374.22,401.37 						"/>
						<polygon class="st23" points="432.86,401.37 432.8,509.77 379.17,509.77 375.05,401.37 						"/>
						<rect x="348.12" y="401.37" class="st23" width="55.45" height="37.66"/>
					</g>
					<line class="st24" x1="355.86" y1="439.03" x2="394.11" y2="439.03"/>
				</g>
				<g>
					<g>
						<g>
							<path class="st2" d="M466.74,306.76c3.33,36.73-0.18,63.5,0.79,131.09l-32.01,1.34l-4.77-126.52L466.74,306.76z"/>
							<path class="st14" d="M434.69,335.43c0,0,19.82-1.81,33.37-10.75l-0.36-7.87l-33.03,4.5L434.69,335.43z"/>
						</g>
						<path class="st6" d="M402.89,222.19c0,0,62.96,15.83,74.37,95.75c0,0-30.81,13.36-61.69,7.61l6.95-26.73L402.89,222.19z"/>
					</g>
					<g>
						<g>
							<path class="st2" d="M214.83,255.42l46.88,55.36l-14.34,40.4c0,0-35.63-49.54-51.64-87.83L214.83,255.42z"/>
							<g>
								<g>
									<g>
										<path class="st2" d="M216.37,257.41c0,0-16.46,9.3-20.65,5.94c-7.32-5.88-13.36-27.4-13.36-27.4s30.78-11.6,30.49-11.15
											C212.57,225.25,216.37,257.41,216.37,257.41z"/>
										<path class="st2" d="M216.37,257.41c-0.29-1.66,6.1-19.53,8.3-26.24c0.53-1.62-0.59-3.39-2.34-3.73l0,0
											c-1.14-0.22-2.95-0.08-3.81,1.56l-7.72,13.2L216.37,257.41z"/>
										<path class="st2" d="M215.81,238.09l-5.3-26.37c-0.31-1.75-2.08-2.96-3.84-2.63l0,0c-1.52,0.29-2.53,1.64-2.35,3.17
											l2.31,19.64L215.81,238.09z"/>
										<path class="st2" d="M205.27,228.36l-7.2-18.83c-0.6-1.65-2.45-2.56-4.09-2.01l0,0c-1.42,0.48-2.22,1.91-1.88,3.38
											l5.34,21.76L205.27,228.36z"/>
										<path class="st2" d="M197.53,233.91l-9.11-18.5c-0.84-1.72-2.92-2.51-4.62-1.77l0,0c-1.6,0.7-2.31,2.51-1.63,4.17
											l7.26,17.47L197.53,233.91z"/>
										<path class="st2" d="M182.36,235.95l-7.15-11.34c-0.59-1.33-0.05-2.83,1.25-3.42l0,0c1.24-0.57,2.77-0.12,3.57,1.04
											l9.4,13.04L182.36,235.95z"/>
									</g>
								</g>
								<path class="st25" d="M214.37,236.11c0,0-10.73-1.13-11.84,13.18"/>
							</g>
						</g>
						<g>
							<g>
								<path class="st2" d="M237.86,332.28c0,0,8.82,30.51,26.39,26.46c17.57-4.06,44.95-41.58,44.95-41.58l-6.13-64.07
									l-49.31,60.69L237.86,332.28z"/>
								<path class="st14" d="M269.05,294.92c0,0,16.65,25.11,30.85,33.97l9.3-11.73l-35.86-27.74L269.05,294.92z"/>
							</g>
							<path class="st6" d="M341.89,220.8c0,0-48.88,11.02-74.93,67.83c0,0,15.74,23.71,40.97,34.25l16.89-20.69L341.89,220.8z"/>
						</g>
					</g>
					<g>
						<path class="st6" d="M341.89,220.63c-19.09,9.79-31.1,22.78-31.1,22.78l3.77,166.06h120.33l-0.39-165.2
							c0,0-15.17-14.84-31.61-22.08C388.93,216.04,355.47,213.67,341.89,220.63z"/>
						<path class="st24" d="M398.83,301.54L398.83,301.54c-9.24,0-16.74-7.49-16.74-16.74v-16.74h33.47v16.74
							C415.57,294.05,408.07,301.54,398.83,301.54z"/>
						<line class="st24" x1="434.69" y1="326.17" x2="436.25" y2="271.84"/>
						<line class="st24" x1="312.64" y1="317.11" x2="310.04" y2="270.02"/>
					</g>
				</g>
				<g>
					<path class="st18" d="M343.3,159.97l-5.02-24.81c-0.28-2.02-1.07-5.14-0.11-8.07c1.59-4.85,7.43-14.16,17.41-9.9l2.16,9.82
						c0,0-10.36,2.09-14.52,15.65L343.3,159.97z"/>
					<path class="st18" d="M354.85,122.31c-0.18,3.26-3.06,17.53-13.18,22.72C341.68,145.04,332.81,126.03,354.85,122.31z"/>
					<path class="st2" d="M390.35,216.06L390.35,216.06v-42.14H351.5v42.14l-11.56,5.27c0,0,2.71,17.46,31.39,17.85
						c28.68,0.39,31.56-16.99,31.56-16.99L390.35,216.06z"/>
					<path class="st18" d="M355.59,117.19c0,0,7.13-18.81,29.11-8.81c13.31,6.05,17.03,14.16,18.62,19.91
						c0.53,1.91,0.74,4.92,0.59,6.71l-5.32,24.97l-20.76-34.55l-20.09,1.59L355.59,117.19z"/>
					<g>
						<path class="st14" d="M398.59,159.97c0,0,2.62-4.17,8.02-2.12c5.4,2.05,2.96,15.17-5.14,16.84c0,0-2.9,0.63-5.18-1.36
							C396.29,173.34,398.28,163.65,398.59,159.97z"/>
						<g>
							<g>
								<path class="st24" d="M405.54,162.49c0,0-4.52-1.51-7.74,5.15"/>
							</g>
						</g>
					</g>
					<g>
						<path class="st14" d="M343.3,159.97c0,0-2.62-4.17-8.02-2.12c-5.4,2.05-2.96,15.17,5.14,16.84c0,0,2.9,0.63,5.18-1.36
							C345.61,173.34,343.62,163.65,343.3,159.97z"/>
						<g>
							<g>
								<path class="st24" d="M336.35,162.49c0,0,4.52-1.51,7.74,5.15"/>
							</g>
						</g>
					</g>
					<path class="st2" d="M399.13,147.53c0,7.91-0.77,24.45-5.64,34.27c-4.56,9.22-12.11,14.18-22.01,14.48
						c-9.9,0.3-17.27-3.52-23.18-15.49c-5.91-11.97-5.63-33.12-5.63-33.12s0-28.25,27.92-28.25
						C400.01,119.42,399.13,147.53,399.13,147.53z"/>
					<path class="st18" d="M351.79,186.69c0,0,3.25,16.51,17.62,18.4c16.53,2.18,20.93-17.98,20.93-17.98s-7.3,9.15-18.86,9.17
						C358.6,196.29,351.79,186.69,351.79,186.69z"/>
					<g>
						<path class="st24" d="M368.92,159.25v6.54c0,0.28,0.05,0.55,0.15,0.8c0.39,0.97,1.5,1.43,2.51,1.16l2.17-0.58"/>
						<path class="st18" d="M360.67,156.13c0,1.4-1.14,2.54-2.54,2.54c-1.4,0-2.54-1.14-2.54-2.54c0-1.4,1.14-2.54,2.54-2.54
							C359.53,153.59,360.67,154.73,360.67,156.13z"/>
						<path class="st18" d="M384.5,156.13c0,1.4-1.14,2.54-2.54,2.54c-1.4,0-2.54-1.14-2.54-2.54c0-1.4,1.14-2.54,2.54-2.54
							C383.36,153.59,384.5,154.73,384.5,156.13z"/>
						<path class="st18" d="M375.45,143.49l17.09,4.41c0,0-0.78-4.79-7.77-6.54C377.78,139.62,375.45,143.49,375.45,143.49z"/>
						<path class="st18" d="M364.84,143.49l-17.09,4.41c0,0,0.78-4.79,7.77-6.54C362.5,139.62,364.84,143.49,364.84,143.49z"/>
						<path class="st24" d="M361.44,172.38c0,0,2.52,1.93,9.15,1.93c6.03,0,9.79-1.93,9.79-1.93"/>
						<g>
							<circle class="st26" cx="357.45" cy="156.87" r="10.8"/>
							<circle class="st26" cx="383.98" cy="156.87" r="10.8"/>
							<path class="st26" d="M368.25,156.87c0,0,2.56-2.39,4.93,0"/>
							<line class="st26" x1="346.65" y1="156.87" x2="343.02" y2="156.78"/>
							<line class="st26" x1="394.78" y1="156.87" x2="398.82" y2="156.81"/>
						</g>
					</g>
					<path class="st18" d="M351.79,122.96c0,0,5.19,14.74,28.59,14.28c15.9-0.31,19.7,11.2,19.7,11.2s-2.77-25.73-3.5-25.48
						c-0.73,0.24-24.2-6.26-24.2-6.26L351.79,122.96z"/>
				</g>
			</g>
		</g>
	</g>
</g>
<g id="DESIGNED_BY_FREEPIK">
</g>
</svg>
